<svg width="19768" height="14249" viewBox="0 0 19768 14249" fill="none" xmlns="http://www.w3.org/2000/svg">
<path d="M17591.6 252.585C17649.7 169.543 17829.6 -27.4181 18134.7 3.20276C18378.7 27.6864 18509.4 187.837 18535.1 219.524C18605.2 306.032 18633.5 394.191 18634.5 397.044C18649.8 439.708 18658.6 479.487 18661.7 493.426C18693.7 637.188 18752.1 923.494 18869.6 1939.95C18996.9 2015.26 19068.9 2121.75 19104.9 2193.58C19148.6 2280.69 19163 2360.11 19168.8 2403.99C19180.8 2493.93 19174.3 2575.94 19168.5 2626.37C19155.9 2736.86 19126.9 2855.8 19093.3 2960.54C19068.4 3037.79 19043.4 3112.61 19010.2 3216.59C19119 4247.19 19244.4 5551.96 19301.3 6615.53C19381.2 8110.18 19327.7 9100.55 19271.9 9729.63C19227.3 10232.2 19185.7 10517 19105.1 10812.8C19108.6 10820.5 19112.5 10828.9 19116.7 10837.9C19148.1 10905.2 19209.2 11027 19260.5 11170.7C19355.1 11316.1 19446.1 11457.5 19535.8 11597.5C19570.2 11637.6 19613.1 11690.7 19652.6 11752.6L19657.6 11760.5L19661.5 11766.7C19680.8 11798.3 19698.4 11831.9 19713.2 11866C19720.9 11883.8 19731.4 11909.8 19740.8 11941.2C19744 11951.8 19773.1 12040.8 19766.1 12154.8C19763.3 12199.3 19749.1 12390.1 19582.9 12547.8C19368.9 12750.9 19112.9 12719.4 18996.2 12682.1C18892.1 12648.9 18823.7 12594.8 18801.8 12577C18771.4 12552.4 18749.3 12529.6 18736.7 12516C18693.5 12469.2 18661.9 12420.4 18648 12398.6C18629.1 12369 18610.3 12339.5 18591.4 12310C18574.1 12290.6 18553.4 12267.2 18531.8 12241.8C18525.6 12250.8 18519.3 12259.5 18513 12268C18492.8 12295.1 18411.9 12406.4 18271.5 12478.4C18190.1 12520.2 18024.6 12580.7 17823.8 12522.1C17616 12461.5 17505.3 12313.6 17456.4 12219.8C17475.7 12256.8 17411.8 12142.6 17376 12070.6C17369.7 12085.4 17362.7 12100.5 17355 12115.6C17340.1 12144.9 17299.4 12221.7 17221.8 12294.5C17151 12360.8 16894.8 12552.4 16566.9 12405.6C16302.2 12287.1 16234.2 12039.9 16223.7 12004.3C16201 11926.8 16193.9 11853.5 16190.7 11806C16186.7 11747.1 16186.2 11680.1 16188 11606.5C16167.1 11605.8 16145.7 11604 16123.7 11601C15876.7 11567.1 15747.1 11401.3 15709 11347.6C15663.1 11282.9 15638.6 11222 15630 11200.2C15619.5 11173.6 15611.1 11147.7 15608.9 11141.2C15576.2 11043 15564.5 10952 15559.3 10913.5C15555.8 10888.2 15554 10876.5 15553.4 10872.4C15527.7 10785.4 15491.8 10682.8 15445.1 10559.7C15439.4 10575.3 15433.8 10590.6 15428.3 10605.5C15284.7 10992.1 15208.3 11132.4 15164.1 11220.6C15121.8 11304.9 15068.8 11446.7 14993.7 11624.6C14968.8 11683.6 14923 11792.1 14871.7 11872.3C14858.6 11892.7 14824.2 11945.5 14769.1 11998.1C14741.6 12024.3 14685.4 12073.5 14601.1 12111.9C14538.6 12140.4 14445 12169.2 14333.5 12165.4C14323.4 12201.5 14304.8 12254 14272.1 12309.1C14244.1 12356.1 14171.5 12464.3 14027.9 12535.8C13852.9 12622.9 13665.1 12610.7 13519.5 12544C13400.6 12489.6 13331.8 12410.4 13304.7 12376.5C13272.5 12336.4 13252.5 12300.5 13242.1 12280.6C13208.2 12215.7 13194.4 12157.5 13194 12156.1C13189.7 12139.5 13186.9 12126 13185.6 12119.2C13180.7 12094.8 13177.8 12072.2 13176.5 12062.2C13173.1 12035.1 13169.6 12000.8 13166.4 11961.4C13159.7 11881 13152.8 11765.7 13149.1 11619.2C13142.4 11349.2 13142.4 10953.4 13179.4 9822.38C13168.9 9968.71 13157.9 10102.3 13146.6 10220.4C13108.4 10620.2 13085.5 10904.8 13065.8 11092.3C13045 11289.9 13021.9 11448.1 12968.6 11615.2C12935.5 11718.9 12882.4 11932.9 12854.3 12230.9C12849.7 12279 12850.9 12271.1 12847 12313.5C12846.5 12318.9 12845.6 12328.2 12844.4 12338.2C12843.9 12342.6 12842.7 12352.7 12840.8 12365C12839.8 12370.9 12838 12382.4 12835 12396.5C12833.5 12403.4 12825.7 12441.7 12807.8 12487.9C12801.4 12504.5 12775.6 12571.7 12718.9 12642.8C12679.2 12692.5 12452.6 12947.7 12090.4 12840.6C11944.5 12797.4 11854 12710.4 11809.4 12658.2C11763.5 12604.6 11737.3 12554.3 11724.2 12526.5C11698.2 12471.3 11687 12424.7 11683.2 12408.6C11674.3 12370.4 11671.4 12339.8 11670.6 12332.1C11669.3 12319.4 11668.7 12309.2 11668.4 12303.5C11667.4 12284.3 11667.5 12267.1 11667.5 12262.4C11667.6 12220.9 11670.7 12098.5 11676.3 11856.7C11617.1 12062.3 11561.6 12247.7 11515.9 12390.9C11443.8 12616.7 11379 12781.6 11313.8 12895.7C11296.1 12926.7 11272.6 12964.2 11242.4 13002.3C11217.2 13034.1 11162.4 13098.8 11074.9 13153C10994.5 13202.9 10769 13310.6 10506.1 13188.9C10259.2 13074.5 10190.4 12852.7 10172.8 12772C10140.1 12622.2 10122.9 12439.6 10118.9 12226C9998.18 12246 9857.68 12248.4 9779.78 12229.2C9707.87 12198.2 9600.56 12127.4 9563.17 12093.6C9501.3 12032.7 9468.4 11972.4 9460.87 11958.7C9438.35 11918 9425.91 11883.6 9423.2 11876.2C9418.21 11862.5 9414.69 11851.4 9412.7 11844.8C9405.65 11821.6 9401.58 11803 9400.31 11797.1C9396.66 11780.2 9394.3 11765.9 9392.91 11756.8C9389.93 11737.5 9387.55 11717.1 9385.44 11696C9383.68 11678.4 9381.79 11657 9379.75 11630.6C9377.55 11616.5 9374.71 11599.1 9371.04 11577.9C9356.13 11491.8 9335.54 11384.5 9308.49 11238.2C9261.56 10984.4 9201.74 10647.4 9145.22 10232C9079.04 10823.6 9006.91 11347.9 8954.85 11700.9C8905.27 12037.1 8871.32 12236.9 8844.95 12357.2C8833.16 12411 8815.78 12483.6 8786.95 12552.4C8763.37 12608.7 8664.84 12830.7 8395.26 12911.6C8159.96 12982.2 7951.61 12897.3 7827.12 12790.2C7725.64 12702.8 7678.06 12603.9 7658.84 12559.4C7616.59 12461.6 7603.63 12368 7598.62 12311.8C7595.33 12274.9 7570.38 12177.1 7538.84 11965.2C7518.84 12056.6 7499.11 12143.6 7479.31 12224.4C7438.5 12391.1 7390.98 12559.6 7328.11 12706.9C7268.71 12846.1 7167.37 13035.8 6979.73 13171.3C6873 13248.3 6666.76 13338.9 6423.19 13254.3C6258.4 13197 6163.97 13086.6 6118.65 13020.7C6072.94 13208.7 6031.18 13375.3 5995.57 13508.1C5966.13 13617.8 5936.07 13723 5908.22 13800.2C5901.24 13819.6 5870.62 13908.8 5813.42 13990.6C5796.42 14014.9 5758.51 14066.1 5696.9 14116C5640.98 14161.3 5496.63 14260.8 5285.92 14247.8C5052.8 14233.5 4908.06 14094.7 4842.42 14004.7C4782.25 13922.1 4757.98 13843.9 4748.75 13811.1C4728.56 13739.2 4693.01 13591.2 4681.52 13416.5C4665.28 13169.5 4627.98 12755.6 4609.47 12029.7C4604.33 12049.6 4599.31 12069 4594.42 12087.9C4558.64 12226 4526.86 12346.8 4499.84 12436.5C4486.69 12480.2 4470.42 12531 4451.27 12578.3C4441.86 12601.6 4426.74 12636.7 4405.15 12674.7C4391.15 12699.4 4340.38 12788.9 4240.79 12865.4C4185.25 12908.1 4088.14 12967.1 3953.06 12984.8C3805.71 13004 3668.16 12966.7 3560.24 12899.4C3385.55 12790.5 3325.5 12628.3 3314.95 12601.2C3279.9 12511.1 3270.04 12422.3 3266.55 12390.6C3247.33 12415.8 3225.33 12440.5 3200.14 12464.4C3054.65 12602.4 2883.09 12636 2763.99 12634.9C2568.69 12632.9 2426.08 12541.9 2382.04 12512.8C2127.93 12344.6 2021.89 12098.1 1975.22 11911.7C1948.37 11804.6 1941.38 11673 1937.76 11576.6C1933.44 11461.4 1932.38 11319.1 1933.55 11156.5C1935.9 10830.6 1947.46 10400.3 1964.06 9897.55C1964.84 9873.94 1965.7 9850.71 1966.64 9827.84C1937.92 9652.34 1910.08 9496.8 1881.55 9343.24C1875.46 9675.46 1873.38 10035.5 1850.55 10383.8C1828.3 10723.4 1787.35 10910.2 1764.64 11055.4C1713.46 11382.7 1665.5 11776.2 1602.41 12059.3C1570.33 12203.3 1523.7 12373.4 1444.7 12523C1370.01 12664.4 1200.79 12908 874.005 12967C817.908 12977.2 621.693 13006.1 425.488 12872.4C259.324 12759.2 203.619 12601.5 187.886 12553.9C154.36 12452.6 147.618 12343 144.095 12287C134.577 12135.7 129.705 11863.5 126.442 11379.7C119.518 10353 120.151 8586.02 113.06 7587.2C109.689 7112.3 103.724 6865.57 98.4686 6710.95C93.6335 6568.68 87.8132 6473.04 86.515 6349.82C80.0004 5731.49 56.5498 5258.25 40.0106 4706C26.4824 4254.28 13.2398 3472.11 6.66652 3063.94C0.0961101 2655.95 0 2611.31 0 2566.07C0 2240.33 264.046 1976.26 589.763 1976.26C818.323 1976.26 1016.51 2106.29 1114.41 2296.41C1131.86 2272.68 1151.66 2248.87 1174.06 2226.07L1178.55 2221.53C1226.92 2173.23 1333.91 2081.59 1501.32 2050.34C1699.29 2013.38 1872.33 2079.48 1988.76 2171.85C2049.62 2055.79 2116.03 1978.46 2138.71 1951L2141.72 1947.39C2207.16 1869.51 2418.75 1660.58 2749.89 1727.15C3025.85 1782.62 3151.9 1994.97 3178.98 2040.97C3255.95 2171.75 3294.08 2332.62 3314.99 2425.72C3365.13 2649 3414.67 2983.51 3468.03 3313.13C3481.87 3398.66 3496.12 3481.31 3510.58 3560.99C3510.57 3207.52 3518.03 2831.98 3521.9 2597.3C3529.7 2123.49 3559.24 1985.6 3577.62 1883.1L3578.42 1878.64C3582.85 1854.45 3593.35 1802.21 3616.54 1744.16C3627.88 1715.78 3657.05 1647.27 3717.07 1576.27C3776.86 1505.55 3928.73 1364.18 4173.61 1365.36C4407.37 1366.49 4552.45 1498.12 4604.66 1553.86C4661.96 1615.04 4693.19 1674.46 4706.02 1700.29C4733.63 1755.89 4747.95 1806 4753.44 1825.7C4775.72 1905.63 4792.67 2017.33 4804.69 2097.54C4818.12 2187.24 4832 2286.24 4847.16 2388.97C4848.19 2106.99 4851.67 1926.6 4859.75 1815.15C4862.43 1778.21 4866.44 1736.03 4873.53 1693.9C4878.75 1662.9 4893.32 1580.21 4938.35 1491.47C4987.51 1394.57 5136.09 1180.68 5435.28 1160.16C5638.99 1146.19 5785.62 1242.15 5807.43 1256.97L5810.12 1258.8L5813.75 1261.17C5967.24 1362.13 6051.2 1509.49 6098.57 1599.28C6156.56 1709.22 6222.79 1862.55 6305.07 2077.92C6447.97 2451.95 6658.58 3066.73 6806.88 3534.35C6805.37 3296.77 6814.57 3128.25 6828.85 3015.96C6881.5 2602.05 6964.81 2099.95 7032.54 1720.33C7066.52 1529.83 7097.21 1366.67 7118.97 1257.21C7129.41 1204.64 7139.22 1157.27 7146.85 1124.74C7148.82 1116.35 7151.68 1104.48 7155.14 1091.72C7156.84 1085.49 7159.72 1075.18 7163.62 1062.95C7165.61 1056.71 7175.54 1024.99 7193.36 987.376C7198.94 975.588 7225.95 917.326 7278.62 855.782C7303.35 826.89 7368.59 755.19 7478.67 704.132C7612.41 642.097 7807.65 616.439 7998.89 715.839C8156.43 797.717 8228.36 923.474 8253.97 974.434C8281.93 1030.08 8295.11 1078.53 8301.26 1104.8C8365.18 1086.15 8435.69 1077.28 8510.76 1082.91C8650.08 1093.36 8753.05 1149.82 8813.94 1193.9C8921.08 1271.46 8973.06 1364.76 8985.18 1386.26C9019.94 1447.92 9037.54 1505.2 9042.34 1520.57C9066.52 1597.93 9089.96 1716.59 9111.35 1828.4C9135.58 1955.1 9166.34 2124.57 9204.04 2331.15C9241.66 2537.33 9287.14 2785.67 9336.45 3056.1C9344.19 2846.98 9351.58 2779.2 9354.8 2720.93C9373.3 2385.71 9419.44 2005.9 9435.76 1806.47C9451.96 1608.52 9512.89 1430.55 9568.37 1318.75C9579.29 1296.74 9647.44 1152.52 9816.29 1060.25C9920.63 1003.22 10057.3 970.253 10206 997.329C10344.5 1022.56 10441.2 1090.37 10496.5 1140.23C10593.9 1228.06 10635.5 1325.38 10644.9 1347.12C10661.1 1384.26 10670.4 1415.93 10675.1 1433.01C10691.3 1491.51 10699.2 1553.06 10702.9 1582.29C10712.8 1659.67 10723.5 1775.08 10736.1 1916.21C10762.1 2206.83 10799.9 2653.85 10862.2 3275.67C10890.3 3555.86 10935.2 3886.06 10987.9 4256.64C10944.9 3697.59 10946 3312.97 10979.6 2849.33C11052.4 1848.09 11164.3 1230.49 11208.9 1052.38C11231.6 961.713 11246.1 875.024 11254.8 807.166C11259.2 773.569 11261.9 746.178 11263.4 727.085C11264.3 715.397 11264.7 709.045 11264.8 707.282C11264.8 707.065 11264.8 706.843 11264.8 706.62C11264.8 705.046 11264.8 700.126 11265.1 693.845C11265.2 690.826 11265.4 684.528 11265.9 676.565C11266.1 673.709 11267.5 649.835 11272.3 620.062C11275.9 599.76 11292.2 536.322 11307.4 494.077C11376.7 368.485 11824.4 125.263 12186.7 227.009C12302.1 330.324 12405.3 503.46 12420.4 548.147C12426 568.799 12433.4 601.476 12435.5 613.36C12439 633.346 12440.6 649.144 12441 652.924C12441.7 659.276 12442.1 664.34 12442.3 667.013C12442.8 672.43 12443 676.681 12443.1 678.21C12443.3 680.208 12443.4 681.813 12443.4 682.677C12443.5 684.352 12443.6 685.736 12443.6 686.072C12443.6 686.848 12443.6 687.296 12443.6 687.523C12443.7 687.666 12443.7 688.022 12443.7 688.759C12443.8 689.558 12443.8 691.017 12444 693.197C12444.6 701.974 12446.1 723.072 12449.8 760.921C12457.1 836.99 12472.6 977.467 12504.9 1216.91C12534.7 1438.67 12579.9 1755.96 12626.6 2091.69C12912.8 2050.08 13119.3 2226.74 13182.9 2288.6L13186.3 2291.87L13191.1 2296.65C13291.7 2397.33 13368.4 2524.11 13438 2669C13442.3 2677.9 13446.6 2687 13450.9 2696.29C13458.3 2659.72 13467.1 2624.23 13477.8 2590.96C13490.6 2551.1 13514 2487.99 13556.8 2421.22C13598.2 2356.66 13684.8 2246.85 13839.1 2181.4C14200.3 2028.14 14467 2264.89 14521 2317.25L14525.6 2321.72L14529 2325.18C14601.4 2397.98 14649.9 2478.89 14675.7 2524.28C14707.5 2580.2 14737.1 2640.95 14763.7 2700.06C14817.3 2818.88 14872.7 2961.3 14925.8 3108.85C14983.3 3268.59 15041.5 3443.98 15095.7 3618.01C14988 2997.17 14983.4 2594.93 15015.1 2235.53C15036.2 1997.02 15146.1 1665.67 15321 1338.13C15404.9 1180.98 15540.9 1037.76 15737.4 965.233C15918.4 898.424 16078.8 919.242 16160.1 935.017C16286.5 959.541 16391.9 1012.34 16461.7 1052.1C16537.1 1094.99 16610.4 1145.74 16676.8 1194.82C16806.4 1290.6 16960.4 1418.35 17110.6 1540.36C17285.8 1682.61 17435.8 1844.95 17567.7 2030.06C17543.7 1595.09 17518 1228.2 17501.3 975.261C17492.3 839.434 17484.9 722.084 17483.3 651.061C17482.9 633.175 17482.5 606.984 17483.7 579.645C17484.2 567.155 17485.5 541.373 17490 510.38C17492.2 495.077 17496.8 467.564 17506 434.293C17512.5 410.892 17534.3 334.535 17591.6 252.585ZM4798.66 13400C4793.53 13412 4793.6 13414 4798.64 13400.1C4798.65 13400 4798.65 13400 4798.66 13400ZM7156.51 12488.1C7159.98 12503.4 7160.35 12500.8 7156.25 12487C7156.34 12487.4 7156.42 12487.8 7156.51 12488.1ZM12847 12264C12847 12265.5 12847 12265.3 12847 12263.8C12847 12263.9 12847 12264 12847 12264ZM8773.48 12207C8773.46 12206.7 8773.37 12205.5 8773.17 12203.6C8773.27 12204.7 8773.38 12205.9 8773.48 12207ZM19642 11763.5C19645.5 11769 19645.3 11768.2 19641.8 11763.2C19641.9 11763.3 19641.9 11763.4 19642 11763.5ZM3211.48 9193.62C3184.89 9361.74 3163.45 9537.99 3150.71 9762.04C3152.53 9773.62 3154.36 9785.25 3156.19 9796.93C3184.09 9975.81 3211.34 10169.7 3237.9 10363C3236.24 10171 3233.59 9996.64 3229.12 9856.09C3221.07 9603.53 3217.26 9393.13 3211.48 9193.62ZM13289.9 6404.25C13290 6494.64 13289.8 6585.89 13289.3 6677.88C13288.9 6738.75 13288.4 6799.89 13287.9 6861.2C13292.7 6731.67 13297.5 6602.29 13302.2 6473.7C13298.2 6450.9 13294.1 6427.76 13289.9 6404.25ZM16953.8 6298.92C16959 6342.35 16963.9 6385.89 16968.7 6429.25C16973.7 6405.4 16978.6 6381.66 16983.6 6358.05C16972.9 6337.99 16963 6318.28 16953.8 6298.92ZM16890.1 3258.85C16883.6 3456.01 16873.1 3676.08 16856.8 3914.79C16910.7 3910.22 16958.4 3911.48 16995.5 3914.43C16967.2 3585.16 16936.8 3388.11 16890.1 3258.85ZM17510.3 749.718C17509.5 745.926 17509.6 746.759 17510.6 750.991C17510.5 750.563 17510.4 750.138 17510.3 749.718Z" fill="#835B03"/>
<path d="M14061.9 7881.79C13966.4 7881.79 13894.4 7855.24 13846.1 7802.14C13797.7 7749.05 13773.5 7671.46 13773.5 7569.4C13773.5 7489.16 13787.1 7412.76 13814.2 7340.19C13841.9 7267.62 13879.4 7203.02 13926.6 7146.38C13973.7 7089.74 14027.4 7045.2 14087.5 7012.75C14148.3 6980.3 14211.4 6964.07 14276.8 6964.07C14358.2 6964.07 14419 6980.59 14459.1 7013.63C14499.8 7046.08 14520.1 7093.87 14520.1 7157C14520.1 7183.55 14514.5 7209.51 14503.3 7234.88C14492.7 7260.24 14476.2 7285.32 14453.8 7310.1C14431.9 7334.29 14404.5 7358.77 14371.5 7383.55C14338.5 7407.74 14299.8 7432.22 14255.6 7457C14228.5 7472.93 14194.6 7491.52 14153.9 7512.76C14113.2 7533.41 14069.3 7554.94 14022.1 7577.36C14022.7 7587.39 14023.6 7596.53 14024.7 7604.79C14026.5 7612.46 14028.6 7619.54 14030.9 7626.03C14035.6 7637.83 14042.1 7647.57 14050.4 7655.24C14059.2 7662.91 14069.6 7666.74 14081.4 7666.74C14108.5 7666.74 14135.3 7660.55 14161.9 7648.16C14189 7635.77 14212.6 7617.18 14232.6 7592.4C14259.2 7561.73 14287.8 7541.96 14318.4 7533.11C14349.7 7524.26 14378 7529.28 14403.3 7548.16C14415.7 7557.01 14426 7570.28 14434.3 7587.98C14442.6 7605.68 14445.2 7626.33 14442.3 7649.93C14439.9 7672.94 14427.5 7698.01 14405.1 7725.15C14364.4 7773.53 14313.7 7811.88 14253 7840.2C14192.2 7867.93 14128.5 7881.79 14061.9 7881.79ZM14049.5 7371.16C14066 7362.31 14082.2 7353.46 14098.2 7344.61C14114.1 7335.17 14130.3 7325.73 14146.8 7316.29C14179.2 7297.41 14206.1 7280.01 14227.3 7264.08C14248.5 7248.15 14264.5 7233.7 14275.1 7220.72C14286.3 7207.15 14291.9 7195.05 14291.9 7184.43C14291.9 7176.76 14290.1 7169.98 14286.6 7164.08C14283.6 7158.18 14278.3 7155.23 14270.7 7155.23C14237.6 7155.23 14207 7164.37 14178.7 7182.66C14150.4 7200.36 14125.3 7225.44 14103.5 7257.88C14081.6 7290.33 14063.7 7328.09 14049.5 7371.16Z" fill="#FFF9EC"/>
<path d="M11705.8 7865.86C11681 7865.86 11658.3 7858.19 11637.7 7842.85C11617.1 7827.51 11603.2 7807.75 11596.1 7783.56C11588.5 7758.78 11592.6 7732.23 11608.5 7703.91L12338.3 6304.77C12351.9 6278.22 12366.6 6257.87 12382.5 6243.71C12398.4 6229.55 12423.5 6222.47 12457.7 6222.47C12509.6 6222.47 12545 6231.91 12563.9 6250.79C12582.7 6269.08 12593.3 6296.21 12595.7 6332.2L12670.9 7367.62L13219.3 6307.42C13232.9 6279.7 13251.2 6258.75 13274.2 6244.59C13297.8 6229.84 13328.4 6222.47 13366.2 6222.47C13410.4 6222.47 13439 6231.91 13452 6250.79C13465.5 6269.08 13473.5 6296.21 13475.9 6332.2L13591.7 7749.05C13594.7 7782.09 13585.3 7809.82 13563.4 7832.23C13541.6 7854.65 13512.4 7865.86 13475.9 7865.86C13436.9 7865.86 13404.8 7855.54 13379.4 7834.89C13354.7 7813.65 13341.7 7789.76 13340.5 7763.21L13267.1 6740.18L12727.5 7787.1C12719.8 7801.85 12706.9 7818.67 12688.6 7837.54C12670.9 7856.42 12637 7865.86 12586.9 7865.86C12549.1 7865.86 12519.6 7856.13 12498.4 7836.66C12477.2 7816.6 12464.8 7792.12 12461.2 7763.21L12384.3 6742.83L11852.6 7783.56C11837.9 7812.47 11815.5 7833.41 11785.4 7846.39C11755.9 7859.37 11729.4 7865.86 11705.8 7865.86Z" fill="#FFF9EC"/>
<path d="M10458.8 7865.86C10439.9 7865.86 10420.1 7861.44 10399.5 7852.59C10379.5 7843.74 10363.5 7830.17 10351.7 7811.88C10339.9 7793 10336.4 7769.11 10341.1 7740.2L10591.5 6318.04C10597.9 6282.65 10613.3 6257.87 10637.5 6243.71C10661.6 6229.55 10687.6 6222.47 10715.3 6222.47C10751.3 6222.47 10782.2 6233.68 10808.2 6256.1C10834.7 6277.93 10844.7 6309.19 10838.3 6349.9L10698.5 7154.34C10742.1 7100.07 10786.4 7054.93 10831.2 7018.94C10876.6 6982.36 10926.1 6964.08 10979.8 6964.08C11043.5 6964.08 11093.9 6980.3 11131.1 7012.75C11168.8 7044.61 11193.3 7091.81 11204.5 7154.34C11215.7 7216.88 11213 7294.47 11196.5 7387.09L11126.6 7780.91C11123.7 7798.61 11111 7817.19 11088.6 7836.66C11066.2 7856.13 11032 7865.86 10986 7865.86C10945.9 7865.86 10916.1 7852.88 10896.6 7826.92C10877.2 7800.38 10870.1 7772.06 10875.4 7741.97L10945.3 7348.15C10951.8 7312.75 10953.8 7282.67 10951.5 7257.89C10949.1 7232.52 10942.9 7213.34 10932.9 7200.36C10922.9 7187.38 10909.3 7180.89 10892.2 7180.89C10862.1 7180.89 10825.9 7209.21 10783.4 7265.85C10741 7321.9 10693.2 7394.47 10640.1 7483.55L10592.3 7755.24C10586.4 7791.23 10569.3 7818.67 10541 7837.54C10513.3 7856.42 10485.9 7865.86 10458.8 7865.86Z" fill="#FFF9EC"/>
<path d="M9758.4 7881.79C9669.35 7881.79 9601.83 7852.88 9555.83 7795.06C9510.42 7737.25 9493.61 7659.37 9505.41 7561.43C9515.43 7468.8 9534.01 7385.62 9561.14 7311.87C9588.27 7238.12 9622.76 7175.58 9664.63 7124.25C9707.09 7072.34 9755.45 7032.81 9809.71 7005.67C9864.55 6977.94 9924.11 6964.07 9988.39 6964.07C10033.2 6964.07 10072.7 6966.43 10106.9 6971.15C10141.1 6975.87 10171.8 6984.13 10198.9 6995.93C10210.1 7000.06 10222.8 7008.03 10237 7019.83C10251.1 7031.04 10261.1 7046.67 10267 7066.73C10273.5 7086.2 10270 7110.68 10256.4 7140.18C10242.9 7169.09 10223.1 7188.86 10197.2 7199.48C10171.2 7210.1 10143.5 7209.51 10114 7197.71C10090.4 7188.27 10068.3 7181.48 10047.7 7177.35C10027 7172.63 10007.3 7170.27 9988.39 7170.27C9945.34 7170.27 9906.42 7186.2 9871.63 7218.06C9837.42 7249.33 9808.82 7294.76 9785.82 7354.35C9762.82 7413.35 9746.61 7484.44 9737.17 7567.63C9733.63 7594.76 9736.29 7617.18 9745.13 7634.88C9754.57 7652.58 9767.54 7661.43 9784.05 7661.43C9812.95 7661.43 9845.09 7643.44 9880.47 7607.45C9916.45 7570.87 9950.95 7520.43 9983.97 7456.12C9993.41 7437.24 10012.6 7425.14 10041.5 7419.83C10071 7413.94 10102.2 7419.54 10135.2 7436.65C10168.3 7452.58 10187.1 7474.7 10191.8 7503.02C10197.2 7530.75 10196 7551.4 10188.3 7564.97C10134.6 7662.91 10069.5 7740.2 9992.82 7796.83C9916.15 7853.47 9838.01 7881.79 9758.4 7881.79Z" fill="#FFF9EC"/>
<path d="M9018.4 7865.86C8985.38 7865.86 8955.3 7857.6 8928.17 7841.08C8901.64 7824.56 8891.91 7795.95 8898.98 7755.24L8997.17 7200.36H8906.06C8865.96 7200.36 8835 7190.33 8813.18 7170.27C8791.95 7150.21 8781.33 7124.84 8781.33 7094.16C8781.33 7062.9 8791.95 7036.94 8813.18 7016.29C8835 6995.64 8865.96 6985.31 8906.06 6985.31H9035.21L9115.71 6519.82C9120.42 6491.5 9135.46 6469.37 9160.82 6453.44C9186.18 6436.92 9212.42 6428.66 9239.55 6428.66C9262.55 6428.66 9284.66 6432.2 9305.89 6439.28C9327.12 6446.36 9343.93 6458.16 9356.31 6474.68C9368.7 6491.2 9372.24 6514.21 9366.93 6543.71L9289.97 6985.31H9402.31C9443 6985.31 9474.26 6995.64 9496.08 7016.29C9517.9 7036.94 9528.81 7062.9 9528.81 7094.16C9528.81 7124.84 9517.9 7150.21 9496.08 7170.27C9474.26 7190.33 9443 7200.36 9402.31 7200.36H9252.82L9150.21 7776.48C9144.31 7808.93 9128.68 7831.94 9103.32 7845.51C9078.55 7859.08 9050.25 7865.86 9018.4 7865.86Z" fill="#FFF9EC"/>
<path d="M8054.3 7876.48C7992.97 7876.48 7942.54 7861.14 7903.03 7830.46C7864.11 7799.2 7837.57 7754.95 7823.42 7697.72C7809.86 7639.9 7810.15 7571.76 7824.31 7493.29C7843.18 7388.27 7874.73 7297.41 7918.96 7220.72C7963.19 7144.02 8018.03 7084.73 8083.49 7042.84C8149.54 7000.95 8223.55 6980 8305.52 6980H8570.01C8610.7 6980 8638.72 6992.98 8654.05 7018.94C8669.38 7044.31 8673.21 7078.24 8665.55 7120.71L8553.21 7772.94C8549.67 7791.23 8538.46 7811.29 8519.59 7833.12C8500.72 7854.95 8468.29 7865.86 8422.29 7865.86C8382.19 7865.86 8352.4 7854.65 8332.94 7832.23C8314.07 7809.81 8307.29 7784.15 8312.6 7755.24L8328.52 7664.09C8298.44 7710.7 8268.07 7749.93 8237.41 7781.79C8206.74 7813.06 8176.08 7836.66 8145.41 7852.59C8115.33 7868.52 8084.96 7876.48 8054.3 7876.48ZM8123.3 7655.24C8140.99 7655.24 8164.87 7639.01 8194.95 7606.57C8225.02 7574.12 8258.34 7526.03 8294.91 7462.31C8331.47 7398.6 8368.03 7320.13 8404.59 7226.91L8409.9 7201.25H8312.6C8273.09 7201.25 8237.7 7213.34 8206.45 7237.53C8175.19 7261.72 8148.95 7295.64 8127.72 7339.3C8106.49 7382.96 8090.86 7434.29 8080.84 7493.29C8073.17 7541.67 8073.17 7580.9 8080.84 7610.99C8089.09 7640.49 8103.25 7655.24 8123.3 7655.24Z" fill="#FFF9EC"/>
<path d="M7074.19 7865.86C7041.75 7865.86 7012.56 7855.24 6986.61 7834C6960.67 7812.17 6950.64 7782.38 6956.54 7744.62L7074.19 7084.43C7080.68 7050.21 7097.48 7024.25 7124.61 7006.55C7152.33 6988.85 7180.04 6980 7207.76 6980C7240.79 6980 7270.27 6992.39 7296.22 7017.17C7322.76 7041.36 7332.49 7073.81 7325.41 7114.52L7319.22 7144.61C7352.83 7093.87 7386.74 7051.98 7420.95 7018.94C7455.74 6985.9 7487.59 6969.38 7516.48 6969.38C7544.2 6969.38 7563.96 6974.4 7575.75 6984.43C7587.54 6994.46 7597.27 7004.78 7604.94 7015.4C7613.2 7025.43 7624.99 7030.45 7640.32 7030.45C7657.43 7030.45 7674.53 7024.84 7691.63 7013.63C7709.32 7002.42 7722.59 6993.87 7731.44 6987.97C7748.54 6976.76 7770.36 6970.86 7796.9 6970.27C7824.02 6969.68 7848.2 6977.05 7869.43 6992.39C7891.25 7007.73 7902.16 7033.4 7902.16 7069.38C7902.16 7094.75 7895.97 7115.4 7883.59 7131.33C7871.79 7146.67 7857.34 7159.06 7840.24 7168.5C7823.73 7177.94 7808.69 7186.2 7795.13 7193.28C7772.13 7205.67 7744.41 7219.54 7711.98 7234.87C7680.13 7249.62 7653.89 7257 7633.25 7257C7609.66 7257 7588.13 7252.87 7568.67 7244.61C7549.8 7235.76 7532.4 7227.2 7516.48 7218.95C7501.15 7210.1 7486.41 7205.67 7472.25 7205.67C7462.82 7205.67 7448.37 7214.82 7428.91 7233.1C7409.45 7251.39 7385.56 7281.19 7357.26 7322.49C7328.95 7363.2 7296.51 7417.47 7259.95 7485.32L7210.41 7762.32C7203.93 7795.95 7186.53 7821.61 7158.22 7839.31C7130.51 7857.01 7102.5 7865.86 7074.19 7865.86Z" fill="#FFF9EC"/>
<path d="M6375.54 7881.79C6286.5 7881.79 6218.97 7852.88 6172.97 7795.06C6127.56 7737.25 6110.76 7659.37 6122.55 7561.43C6132.58 7468.8 6151.15 7385.62 6178.28 7311.87C6205.41 7238.12 6239.91 7175.58 6281.78 7124.25C6324.24 7072.34 6372.6 7032.81 6426.85 7005.67C6481.69 6977.94 6541.26 6964.07 6605.54 6964.07C6650.36 6964.07 6689.87 6966.43 6724.07 6971.15C6758.28 6975.87 6788.94 6984.13 6816.07 6995.93C6827.27 7000.06 6839.95 7008.03 6854.11 7019.83C6868.26 7031.04 6878.29 7046.67 6884.18 7066.73C6890.67 7086.2 6887.13 7110.68 6873.57 7140.18C6860 7169.09 6840.25 7188.86 6814.3 7199.48C6788.35 7210.1 6760.63 7209.51 6731.15 7197.71C6707.56 7188.27 6685.44 7181.48 6664.8 7177.35C6644.16 7172.63 6624.41 7170.27 6605.54 7170.27C6562.49 7170.27 6523.57 7186.2 6488.77 7218.06C6454.57 7249.33 6425.97 7294.76 6402.97 7354.35C6379.97 7413.35 6363.75 7484.44 6354.31 7567.63C6350.78 7594.76 6353.43 7617.18 6362.28 7634.88C6371.71 7652.58 6384.69 7661.43 6401.2 7661.43C6430.09 7661.43 6462.23 7643.44 6497.62 7607.45C6533.59 7570.87 6568.09 7520.43 6601.11 7456.12C6610.55 7437.24 6629.72 7425.14 6658.61 7419.83C6688.1 7413.94 6719.35 7419.54 6752.38 7436.65C6785.4 7452.58 6804.27 7474.7 6808.99 7503.02C6814.3 7530.75 6813.12 7551.4 6805.45 7564.97C6751.79 7662.91 6686.62 7740.2 6609.96 7796.83C6533.3 7853.47 6455.16 7881.79 6375.54 7881.79Z" fill="#FFF9EC"/>
<path d="M5619.18 7881.79C5584.98 7881.79 5546.64 7876.48 5504.18 7865.86C5462.31 7855.83 5425.46 7840.79 5393.61 7820.73C5344.66 7789.46 5313.11 7756.72 5298.96 7722.5C5284.81 7688.28 5287.17 7656.42 5306.04 7626.92C5323.14 7596.83 5349.09 7582.97 5383.88 7585.33C5419.26 7587.69 5450.81 7598.01 5478.53 7616.3C5489.15 7622.2 5508.31 7631.93 5536.03 7645.5C5564.34 7658.48 5592.64 7664.97 5620.95 7664.97C5646.9 7664.97 5665.47 7658.48 5676.68 7645.5C5688.47 7632.52 5694.37 7619.54 5694.37 7606.56C5694.37 7596.53 5692.9 7588.57 5689.95 7582.67C5687 7576.18 5680.51 7569.1 5670.49 7561.43C5653.97 7549.63 5633.33 7536.06 5608.57 7520.72C5583.8 7504.79 5557.55 7488.57 5529.84 7472.05C5476.17 7440.19 5435.48 7402.14 5407.76 7357.89C5380.05 7313.05 5366.19 7262.9 5366.19 7207.44C5366.19 7130.74 5394.79 7071.16 5451.99 7028.68C5509.2 6985.61 5587.63 6964.07 5687.29 6964.07C5721.5 6964.07 5757.77 6967.32 5796.1 6973.81C5834.43 6980.3 5869.81 6991.21 5902.25 7006.55C5949.43 7028.97 5982.16 7056.41 6000.44 7088.85C6019.31 7121.3 6018.72 7156.7 5998.67 7195.05C5983.34 7222.78 5958.86 7236.94 5925.25 7237.53C5892.22 7238.12 5859.49 7229.86 5827.06 7212.75C5807.01 7202.13 5782.53 7192.99 5753.64 7185.32C5725.33 7177.65 5696.14 7173.81 5666.06 7173.81C5644.83 7173.81 5628.03 7177.65 5615.64 7185.32C5603.85 7192.99 5597.95 7202.72 5597.95 7214.52C5597.95 7229.27 5606.21 7244.32 5622.72 7259.65C5639.82 7274.99 5667.24 7294.76 5704.99 7318.95C5730.34 7335.47 5756.88 7352.87 5784.6 7371.16C5812.32 7388.86 5833.25 7404.79 5847.4 7418.95C5870.4 7440.78 5889.57 7465.56 5904.9 7493.29C5920.24 7520.43 5927.9 7559.96 5927.9 7611.87C5927.9 7665.56 5915.22 7712.76 5889.86 7753.47C5865.1 7794.18 5829.42 7825.74 5782.83 7848.16C5736.83 7870.58 5682.28 7881.79 5619.18 7881.79Z" fill="#FFF9EC"/>
</svg>
