<svg width="100%" height="100%" viewBox="0 0 406 507" fill="none" xmlns="http://www.w3.org/2000/svg" preserveAspectRatio="xMidYMid meet">
<path d="M3 255.607V11C3 6.58172 6.58171 3 11 3H352.01C354.291 3 356.464 3.97378 357.982 5.67652L364.511 13.0013C367.693 16.57 373.273 16.57 376.455 13.0013L382.984 5.67652C384.502 3.97378 386.675 3 388.956 3H395C399.418 3 403 6.58172 403 11V110.836C403 112.023 402.736 113.195 402.227 114.268L396.477 126.376C395.19 129.087 395.528 132.289 397.353 134.672L401.351 139.893C402.421 141.289 403 142.999 403 144.757V479.153C403 482.149 401.326 484.895 398.662 486.266L390.008 490.721C387.625 491.948 386.987 495.063 388.695 497.128C390.959 499.864 389.013 504 385.462 504H77.2932C75.131 504 73.0608 503.125 71.5544 501.574L68.7775 498.715C65.7502 495.598 60.7882 495.467 57.6011 498.42L53.8806 501.868C52.4016 503.239 50.4595 504 48.443 504H11C6.58172 504 3 500.418 3 496V280.911C3 278.499 4.09832 276.207 5.97171 274.688C9.47871 271.845 9.96132 266.646 7.01088 263.229L4.94443 260.835C3.69012 259.382 3 257.527 3 255.607Z" fill="#FFF9EC" stroke="#835B03" stroke-width="6" vector-effect="non-scaling-stroke"/>
</svg>