<svg width="6704" height="4833" viewBox="0 0 6704 4833" fill="none" xmlns="http://www.w3.org/2000/svg">
<path d="M200 871.057C200 884.468 200 897.878 202.235 1036.66C204.47 1175.44 208.941 1439.19 213.479 1590.71C218.958 1773.66 227.093 1939.87 229.328 2152C230.15 2230.06 236.033 2247.91 238.336 2572.28C240.639 2896.65 240.639 3526.96 242.874 3858.37C245.109 4189.78 249.58 4203.19 260.823 4201.16C345.684 4185.82 362.285 3965.32 400.825 3718.84C409.797 3661.46 421.212 3612.3 427.985 3508.94C438.838 3343.34 434.759 3205.91 441.532 3039.97C446.842 2909.87 443.835 2686.27 446.07 2559.95C450.693 2298.64 461.851 2103.91 468.624 1924.9C474.886 1759.39 470.927 1441.9 479.868 1247.1C491.732 988.601 529.583 907.361 540.827 895.914C569.465 866.758 565.752 1041.88 567.987 1165.96C569.181 1232.26 597.18 1406.82 624.272 1661.76C646.651 1872.34 647.03 1986.06 671.617 2180.99C692.324 2345.17 745.377 2639.67 772.944 2798.37C810.779 3016.18 841.014 3150.64 872.713 3353.83C895.848 3502.14 917.957 3683.82 940.444 3830.33C958.039 3944.96 958.597 4013.41 951.891 4072.13C949.66 4091.67 931.775 4086.15 918.161 4077.14C888.877 4057.77 872.848 4027.5 863.84 3991.53C850.575 3938.57 854.696 3704.28 865.939 3363.72C872.918 3152.34 899.805 3043.35 924.527 2899.76C973.591 2614.79 985.689 2366.3 987.924 2255.83C991.452 2081.5 981.355 1874.3 956.429 1790.18C929.182 1698.22 881.924 1567.07 852.596 1440.48C826.801 1329.13 827.739 1228.41 820.898 1074.79C817.229 992.412 818.527 939.059 838.847 862.319C847.887 828.177 868.242 803.46 879.486 789.846C917.613 743.68 940.444 920.365 978.645 1156.34C1028.93 1467 1094.06 1670.16 1100.77 1721.77C1114.01 1823.68 1165.99 2056.91 1213.4 2325.46C1234.63 2445.71 1242.93 2563.4 1265.49 2763.76C1290.45 2985.47 1288.18 3124.09 1294.95 3336.7C1301.15 3531.34 1297.26 3902.46 1301.73 4082.43C1306.2 4262.39 1315.14 4240.04 1364.45 4049.71C1413.75 3859.39 1503.16 3501.76 1553.69 3281.77C1604.22 3061.78 1613.16 2990.25 1617.76 2886.35C1622.37 2782.45 1622.37 2648.34 1606.72 2503.26C1574.47 2204.24 1509.66 2000.42 1478.1 1905.8C1424.6 1745.42 1405.63 1607.71 1394.38 1405.33C1386.93 1271.13 1392.08 1020.61 1394.32 884.942C1396.77 735.733 1405.63 699.695 1410.1 674.77C1420.77 615.247 1437.19 811.994 1468.55 977.938C1535.73 1333.43 1595.28 1588.74 1597.51 1640.56C1601.94 1743.35 1631.31 1832.58 1638.15 1931.74C1650.72 2113.95 1712.59 2337.86 1721.66 2437.49C1738.19 2618.93 1748.76 2712.96 1755.53 2990.72C1761.32 3228.2 1757.83 3661.88 1760.07 3898.67C1763.41 4252.67 1780.32 4433.21 1787.16 4537.25C1789.86 4578.35 1798.47 4614.19 1802.94 4630.11C1810.45 4656.84 1856.86 4471 1915.44 4223.44C1947.35 4088.65 1965.09 3931.18 1976.61 3783.53C1988.12 3635.87 1988.12 3501.76 1965.77 3253.86C1943.42 3005.96 1898.71 2648.34 1873.45 2189.19C1848.19 1730.03 1843.72 1180.18 1843.65 890.225C1843.58 600.265 1848.05 586.854 1861.53 595.591C1875.01 604.329 1897.36 635.621 1951.34 776.909C2005.32 918.198 2090.26 1168.53 2138.49 1326.55C2203.74 1540.38 2204.86 1615.97 2207.1 1647.47C2210 1688.35 2218.41 1831.63 2220.64 2032.39C2221.54 2112.47 2227.35 2148.21 2229.65 2358.85C2231.96 2569.5 2231.96 2953.95 2227.48 3183.29C2221.79 3475.46 2204.86 3562.04 2202.63 3611.55C2192.48 3836.41 2209.2 4180.16 2231.89 4279.93C2236.05 4298.24 2240.9 4311.56 2249.9 4305.06C2329.95 4247.28 2353.47 4024.24 2436.78 3668.99C2487.21 3453.91 2524.56 3161.75 2552.06 2750.55C2579.56 2339.35 2588.5 1816.32 2590.87 1491.01C2594.05 1053.94 2588.63 903.026 2595.4 830.959C2608.54 691.207 2611.25 510.994 2620.26 424.094C2624.53 382.888 2548.67 777.858 2514.19 1048.85C2507.01 1105.35 2502.88 1244.67 2523 1512.41C2548.49 1851.65 2624.8 2049.46 2631.51 2101.07C2655.5 2285.78 2678.85 2432.28 2699.17 2767.01C2712.69 2989.68 2706.08 3320.78 2715.02 3544.84C2733.62 4010.9 2769.2 4081.27 2776.04 4158.02C2777.67 4176.3 2782.75 4189.65 2789.52 4187.61C2796.3 4185.58 2805.24 4167.7 2838.9 3939.44C2872.56 3711.19 2930.68 3273.1 2951.67 2873.07C2972.67 2473.05 2954.79 2124.37 2941.11 1929.1C2927.43 1733.82 2918.49 1702.53 2904.94 1483.01C2891.39 1263.49 2873.51 856.698 2868.77 673.957C2864.03 491.216 2872.97 544.86 2924.51 827.302C2976.06 1109.74 3069.93 1619.36 3118.29 1917.65C3166.65 2215.94 3166.65 2287.46 3191.24 2527.71C3215.83 2767.95 3265 3174.75 3292.57 3391.02C3333.55 3712.53 3383.4 3905.04 3383.4 3959.29C3383.4 3959.9 3374.46 3928.2 3360.91 3440.67C3347.86 2971.17 3356.3 2050.13 3358.54 1557.86C3360.94 1029.78 3369.85 975.093 3372.09 934.589C3378.33 821.355 3392.34 713.377 3399.18 629.796C3402.35 591.007 3414.96 555.155 3423.97 537.003C3432.76 519.285 3442.05 707.146 3484.59 1131.62C3513.79 1423.01 3594.18 1864.55 3633.26 2295.93C3672.34 2727.32 3676.81 3134.11 3676.88 3352.62C3676.95 3589.04 3658.93 3687.89 3645.38 3841.1C3625.8 4062.58 3627.23 4206.99 3645.18 4289.14C3647.35 4299.06 3667.6 4289.35 3714.74 4141.76C3761.88 3994.17 3842.35 3703.6 3892.74 3502.51C3943.13 3301.41 3961.01 3198.59 3974.7 2993.64C3988.38 2788.68 3997.32 2484.7 3986.28 2198.47C3975.24 1912.23 3943.95 1652.95 3927.82 1456.8C3911.7 1260.65 3911.7 1135.48 3922.88 981.595C3947.1 648.09 3983.91 451.255 3995.15 406.349C4015.11 326.625 4020.08 257.135 4020.08 243.453C4020.08 239.254 4020.08 274.475 4042.43 440.282C4064.78 606.09 4109.48 910.07 4132.51 1109.13C4155.54 1308.2 4155.54 1393.13 4157.77 1454.77C4160.01 1516.41 4164.48 1552.17 4169.02 1798.58C4173.56 2044.98 4178.03 2500.96 4175.86 2943.72C4173.69 3386.48 4164.75 3802.22 4160.15 4002.98C4155.54 4203.73 4155.54 4176.91 4160.01 4129.57C4170.84 4014.9 4191.57 3928.2 4207.35 3878.76C4230.8 3805.31 4232.21 3729.61 4259.17 3447.58C4283.51 3192.89 4304.01 2709.57 4306.65 2264.17C4309.29 1818.76 4286.94 1425.37 4277.66 1213.78C4267.6 984.474 4281.93 952.47 4293.17 925.445C4299.01 911.406 4308.88 898.42 4331.37 920.569C4353.86 942.717 4389.62 1000.83 4452.75 1189.46C4515.87 1378.1 4605.28 1695.49 4660.28 1930.52C4715.28 2165.55 4733.16 2308.6 4742.37 2460.52C4761.04 2768.47 4747.11 2970.34 4738.1 3040.24C4727.24 3124.49 4715.55 3222.98 4708.71 3374.29C4705.33 3448.89 4697.39 3628.56 4692.92 3860.94C4690.59 3982.29 4670.3 4045.11 4668.07 4072.4C4667.69 4076.97 4661.36 4028.17 4659.06 3935.92C4656.76 3843.67 4656.75 3700.62 4672.4 3244.72C4688.05 2788.82 4719.34 2024.39 4733.22 1543.43C4747.11 1062.47 4742.64 888.125 4785.04 930.187C4827.44 972.248 4916.85 1236 4969.61 1427.74C5022.37 1619.49 5035.78 1731.25 5042.69 1909.52C5049.6 2087.79 5049.6 2329.19 5022.78 2639.06C4995.96 2948.93 4942.31 3319.97 4914.68 3520.05C4879.61 3773.92 4864.56 3855.32 4864.42 3914.38C4864.28 3974.72 4927.41 3788.4 4963.65 3716.13C4977.18 3689.14 4999.48 3648.87 5044.52 3527.57C5089.56 3406.26 5156.62 3205.1 5240.33 2880.19C5324.05 2555.28 5422.4 2112.72 5475.29 1723.8C5528.19 1334.88 5532.66 1013.02 5530.5 858.391C5528.33 703.759 5519.39 726.111 5508.08 768.917C5496.77 811.724 5483.35 874.308 5438.45 1027.25C5393.54 1180.18 5317.55 1421.58 5267.22 1601.82C5186.3 1891.63 5171.52 2040.24 5169.28 2103.3C5167.04 2166.68 5157.97 2274.6 5171.38 2474.68C5179.73 2599.2 5211.61 2768.63 5236.61 2898.61C5298.92 3222.65 5351.95 3326.74 5397.13 3439.99C5427.37 3515.78 5451.39 3580.06 5467.23 3634.31C5474.84 3660.35 5474.01 3688.57 5483.02 3715.59C5487.55 3729.2 5492.02 3742.62 5501.03 3733.88C5533.97 3701.94 5559.62 3558.79 5595.72 3311.37C5616.69 3167.63 5613.94 2983.48 5607.3 2808.59C5600.67 2633.71 5582.78 2472.78 5531.11 2204.36C5479.43 1935.94 5394.49 1564.9 5348.5 1355.88C5282.88 1057.64 5279.89 903.839 5291.13 776.571C5295.1 731.645 5320.26 645.916 5372.07 548.856C5392.12 511.292 5419.42 509.911 5442.11 514.313C5489.65 523.539 5568.29 590.647 5676.46 678.495C5771.86 755.972 5843.96 861.439 5909.32 1021.01C5949.38 1118.82 5961.27 1265.53 5975.02 1480.03C5988.77 1694.54 5993.24 1976.17 5988.84 2192.78C5984.43 2409.38 5971.02 2552.43 5955.17 2673.06C5911.77 3003.44 5885.14 3127.88 5871.46 3293.01C5857.6 3460.29 5821.74 3602.55 5792.55 3692.77C5739.01 3858.22 5726.92 3941.21 5713.44 4000.06C5710.24 4014.05 5704.43 4027.09 5699.89 4025.06C5679.95 4016.13 5686.28 3874.96 5735.45 3428.48C5772.49 3092.19 5882.97 2539.43 5971.63 2119.76C6060.29 1700.09 6136.29 1431.88 6179.91 1282.53C6242.34 1068.77 6264.17 1006.79 6284.49 943.597C6301.66 890.197 6309.41 835.159 6296 830.35C6126.94 769.726 6183.16 1082.92 6160.47 1144.02C6133.78 1215.89 6128.84 1277.31 6124.3 1539.03C6120 1787.3 6128.7 2270.13 6128.77 2538.95C6128.85 2848.04 6119.76 2920.76 6115.29 2997.23C6104.13 3188.23 6083.73 3286.37 6054.4 3486.59C5991.75 3914.31 6069.91 4000 6097.07 4052.01C6111.08 4078.84 6182.48 3938.5 6265.93 3681.52C6302.67 3568.37 6318.08 3487.13 6336.23 3282.51C6354.39 3077.9 6372.27 2751.56 6345.72 2254.89C6319.17 1758.21 6247.64 1101.07 6208.56 753.61C6163.34 351.618 6142.52 253.071 6133.31 211.687C6118.78 146.433 6142.25 387.316 6160.27 734.645C6175.26 1023.61 6178.28 1542.41 6180.65 1858.72C6183.02 2175.03 6178.55 2273.38 6167.31 2326.28C6156.07 2379.17 6138.19 2383.64 6117.8 2385.95C6075.27 2390.75 6038.62 2383.78 6009.36 2377.01C5993.76 2373.39 5975.63 2374.7 5970.89 2406C5956.81 2498.91 5993.24 2600.11 6029.14 2721.35C6143.29 3106.9 6196.44 3182.61 6223.53 3275.2C6243.38 3343.04 6241.68 3515.85 6268.64 3665.74C6281.19 3735.56 6318.35 3783.25 6345.38 3862.16C6392 3998.29 6462.76 4040.64 6496.69 4094.89C6504.77 4107.81 6508 4121.91 6492.42 4097.53C6388.16 3934.34 6283.13 3771.33 6145.09 3569.76C6069.29 3459.07 5971.43 3301.28 5847.48 3125.58C5734.92 2966.02 5677.47 2817.81 5636.9 2702.93C5575.37 2528.72 5573.57 2317.81 5541.87 2090.97C5500.3 1793.5 5681.67 1562.06 5704.16 1539.5C5715.7 1527.93 5735.59 1525.89 5751.5 1528.06C5873.07 1544.61 5884.87 1854.79 5900.72 1929.71C5903.02 1945.55 5903.02 1963.44 5909.73 1992.76C5916.43 2022.09 5929.84 2062.32 5970.75 2117.32" stroke="#835B03" stroke-width="400" stroke-linecap="round"/>
<path d="M4769.07 2673.4C4736.67 2673.4 4712.27 2664.4 4695.87 2646.4C4679.47 2628.4 4671.27 2602.1 4671.27 2567.5C4671.27 2540.3 4675.87 2514.4 4685.07 2489.8C4694.47 2465.2 4707.17 2443.3 4723.17 2424.1C4739.17 2404.9 4757.37 2389.8 4777.77 2378.8C4798.37 2367.8 4819.77 2362.3 4841.97 2362.3C4869.57 2362.3 4890.17 2367.9 4903.77 2379.1C4917.57 2390.1 4924.47 2406.3 4924.47 2427.7C4924.47 2436.7 4922.57 2445.5 4918.77 2454.1C4915.17 2462.7 4909.57 2471.2 4901.97 2479.6C4894.57 2487.8 4885.27 2496.1 4874.07 2504.5C4862.87 2512.7 4849.77 2521 4834.77 2529.4C4825.57 2534.8 4814.07 2541.1 4800.27 2548.3C4786.47 2555.3 4771.57 2562.6 4755.57 2570.2C4755.77 2573.6 4756.07 2576.7 4756.47 2579.5C4757.07 2582.1 4757.77 2584.5 4758.57 2586.7C4760.17 2590.7 4762.37 2594 4765.17 2596.6C4768.17 2599.2 4771.67 2600.5 4775.67 2600.5C4784.87 2600.5 4793.97 2598.4 4802.97 2594.2C4812.17 2590 4820.17 2583.7 4826.97 2575.3C4835.97 2564.9 4845.67 2558.2 4856.07 2555.2C4866.67 2552.2 4876.27 2553.9 4884.87 2560.3C4889.07 2563.3 4892.57 2567.8 4895.37 2573.8C4898.17 2579.8 4899.07 2586.8 4898.07 2594.8C4897.27 2602.6 4893.07 2611.1 4885.47 2620.3C4871.67 2636.7 4854.47 2649.7 4833.87 2659.3C4813.27 2668.7 4791.67 2673.4 4769.07 2673.4ZM4764.87 2500.3C4770.47 2497.3 4775.97 2494.3 4781.37 2491.3C4786.77 2488.1 4792.27 2484.9 4797.87 2481.7C4808.87 2475.3 4817.97 2469.4 4825.17 2464C4832.37 2458.6 4837.77 2453.7 4841.37 2449.3C4845.17 2444.7 4847.07 2440.6 4847.07 2437C4847.07 2434.4 4846.47 2432.1 4845.27 2430.1C4844.27 2428.1 4842.47 2427.1 4839.87 2427.1C4828.67 2427.1 4818.27 2430.2 4808.67 2436.4C4799.07 2442.4 4790.57 2450.9 4783.17 2461.9C4775.77 2472.9 4769.67 2485.7 4764.87 2500.3Z" fill="#FFF9EC"/>
<path d="M3970.02 2668C3961.62 2668 3953.93 2665.4 3946.93 2660.2C3939.93 2655 3935.22 2648.3 3932.82 2640.1C3930.22 2631.7 3931.62 2622.7 3937.02 2613.1L4184.52 2138.8C4189.12 2129.8 4194.12 2122.9 4199.52 2118.1C4204.92 2113.3 4213.42 2110.9 4225.02 2110.9C4242.62 2110.9 4254.63 2114.1 4261.03 2120.5C4267.43 2126.7 4271.02 2135.9 4271.82 2148.1L4297.32 2499.1L4483.32 2139.7C4487.92 2130.3 4494.13 2123.2 4501.93 2118.4C4509.93 2113.4 4520.32 2110.9 4533.12 2110.9C4548.13 2110.9 4557.83 2114.1 4562.23 2120.5C4566.83 2126.7 4569.52 2135.9 4570.32 2148.1L4609.62 2628.4C4610.63 2639.6 4607.43 2649 4600.03 2656.6C4592.63 2664.2 4582.72 2668 4570.32 2668C4557.12 2668 4546.22 2664.5 4537.62 2657.5C4529.22 2650.3 4524.83 2642.2 4524.43 2633.2L4499.52 2286.4L4316.52 2641.3C4313.92 2646.3 4309.52 2652 4303.32 2658.4C4297.32 2664.8 4285.82 2668 4268.82 2668C4256.02 2668 4246.02 2664.7 4238.82 2658.1C4231.62 2651.3 4227.43 2643 4226.23 2633.2L4200.12 2287.3L4019.82 2640.1C4014.82 2649.9 4007.22 2657 3997.02 2661.4C3987.02 2665.8 3978.02 2668 3970.02 2668Z" fill="#FFF9EC"/>
<path d="M3547.1 2668C3540.7 2668 3534 2666.5 3527 2663.5C3520.2 2660.5 3514.8 2655.9 3510.8 2649.7C3506.8 2643.3 3505.6 2635.2 3507.2 2625.4L3592.1 2143.3C3594.3 2131.3 3599.5 2122.9 3607.7 2118.1C3615.9 2113.3 3624.7 2110.9 3634.1 2110.9C3646.3 2110.9 3656.8 2114.7 3665.6 2122.3C3674.6 2129.7 3678 2140.3 3675.8 2154.1L3628.4 2426.8C3643.2 2408.4 3658.2 2393.1 3673.4 2380.9C3688.8 2368.5 3705.6 2362.3 3723.8 2362.3C3745.4 2362.3 3762.5 2367.8 3775.1 2378.8C3787.9 2389.6 3796.2 2405.6 3800 2426.8C3803.8 2448 3802.9 2474.3 3797.3 2505.7L3773.6 2639.2C3772.6 2645.2 3768.3 2651.5 3760.7 2658.1C3753.1 2664.7 3741.5 2668 3725.9 2668C3712.3 2668 3702.2 2663.6 3695.6 2654.8C3689 2645.8 3686.6 2636.2 3688.4 2626L3712.1 2492.5C3714.3 2480.5 3715 2470.3 3714.2 2461.9C3713.4 2453.3 3711.3 2446.8 3707.9 2442.4C3704.5 2438 3699.9 2435.8 3694.1 2435.8C3683.9 2435.8 3671.6 2445.4 3657.2 2464.6C3642.8 2483.6 3626.6 2508.2 3608.6 2538.4L3592.4 2630.5C3590.4 2642.7 3584.6 2652 3575 2658.4C3565.6 2664.8 3556.3 2668 3547.1 2668Z" fill="#FFF9EC"/>
<path d="M3309.58 2673.4C3279.38 2673.4 3256.48 2663.6 3240.88 2644C3225.48 2624.4 3219.78 2598 3223.78 2564.8C3227.18 2533.4 3233.48 2505.2 3242.68 2480.2C3251.88 2455.2 3263.58 2434 3277.78 2416.6C3292.18 2399 3308.58 2385.6 3326.98 2376.4C3345.58 2367 3365.78 2362.3 3387.58 2362.3C3402.78 2362.3 3416.18 2363.1 3427.78 2364.7C3439.38 2366.3 3449.78 2369.1 3458.98 2373.1C3462.78 2374.5 3467.08 2377.2 3471.88 2381.2C3476.68 2385 3480.08 2390.3 3482.08 2397.1C3484.28 2403.7 3483.08 2412 3478.48 2422C3473.88 2431.8 3467.18 2438.5 3458.38 2442.1C3449.58 2445.7 3440.18 2445.5 3430.18 2441.5C3422.18 2438.3 3414.68 2436 3407.68 2434.6C3400.68 2433 3393.98 2432.2 3387.58 2432.2C3372.98 2432.2 3359.78 2437.6 3347.98 2448.4C3336.38 2459 3326.68 2474.4 3318.88 2494.6C3311.08 2514.6 3305.58 2538.7 3302.38 2566.9C3301.18 2576.1 3302.08 2583.7 3305.08 2589.7C3308.28 2595.7 3312.68 2598.7 3318.28 2598.7C3328.08 2598.7 3338.98 2592.6 3350.98 2580.4C3363.18 2568 3374.88 2550.9 3386.08 2529.1C3389.28 2522.7 3395.78 2518.6 3405.58 2516.8C3415.58 2514.8 3426.18 2516.7 3437.38 2522.5C3448.58 2527.9 3454.98 2535.4 3456.58 2545C3458.38 2554.4 3457.98 2561.4 3455.38 2566C3437.18 2599.2 3415.08 2625.4 3389.08 2644.6C3363.08 2663.8 3336.58 2673.4 3309.58 2673.4Z" fill="#FFF9EC"/>
<path d="M3058.62 2668C3047.42 2668 3037.22 2665.2 3028.02 2659.6C3019.02 2654 3015.72 2644.3 3018.12 2630.5L3051.42 2442.4H3020.52C3006.92 2442.4 2996.42 2439 2989.02 2432.2C2981.82 2425.4 2978.22 2416.8 2978.22 2406.4C2978.22 2395.8 2981.82 2387 2989.02 2380C2996.42 2373 3006.92 2369.5 3020.52 2369.5H3064.32L3091.62 2211.7C3093.22 2202.1 3098.32 2194.6 3106.92 2189.2C3115.52 2183.6 3124.42 2180.8 3133.62 2180.8C3141.42 2180.8 3148.92 2182 3156.12 2184.4C3163.32 2186.8 3169.02 2190.8 3173.22 2196.4C3177.42 2202 3178.62 2209.8 3176.82 2219.8L3150.72 2369.5H3188.82C3202.62 2369.5 3213.22 2373 3220.62 2380C3228.02 2387 3231.72 2395.8 3231.72 2406.4C3231.72 2416.8 3228.02 2425.4 3220.62 2432.2C3213.22 2439 3202.62 2442.4 3188.82 2442.4H3138.12L3103.32 2637.7C3101.32 2648.7 3096.02 2656.5 3087.42 2661.1C3079.02 2665.7 3069.42 2668 3058.62 2668Z" fill="#FFF9EC"/>
<path d="M2731.65 2671.6C2710.85 2671.6 2693.75 2666.4 2680.35 2656C2667.15 2645.4 2658.15 2630.4 2653.35 2611C2648.75 2591.4 2648.85 2568.3 2653.65 2541.7C2660.05 2506.1 2670.75 2475.3 2685.75 2449.3C2700.75 2423.3 2719.35 2403.2 2741.55 2389C2763.95 2374.8 2789.05 2367.7 2816.85 2367.7H2906.55C2920.35 2367.7 2929.85 2372.1 2935.05 2380.9C2940.25 2389.5 2941.55 2401 2938.95 2415.4L2900.85 2636.5C2899.65 2642.7 2895.85 2649.5 2889.45 2656.9C2883.05 2664.3 2872.05 2668 2856.45 2668C2842.85 2668 2832.75 2664.2 2826.15 2656.6C2819.75 2649 2817.45 2640.3 2819.25 2630.5L2824.65 2599.6C2814.45 2615.4 2804.15 2628.7 2793.75 2639.5C2783.35 2650.1 2772.95 2658.1 2762.55 2663.5C2752.35 2668.9 2742.05 2671.6 2731.65 2671.6ZM2755.05 2596.6C2761.05 2596.6 2769.15 2591.1 2779.35 2580.1C2789.55 2569.1 2800.85 2552.8 2813.25 2531.2C2825.65 2509.6 2838.05 2483 2850.45 2451.4L2852.25 2442.7H2819.25C2805.85 2442.7 2793.85 2446.8 2783.25 2455C2772.65 2463.2 2763.75 2474.7 2756.55 2489.5C2749.35 2504.3 2744.05 2521.7 2740.65 2541.7C2738.05 2558.1 2738.05 2571.4 2740.65 2581.6C2743.45 2591.6 2748.25 2596.6 2755.05 2596.6Z" fill="#FFF9EC"/>
<path d="M2399.25 2668C2388.25 2668 2378.35 2664.4 2369.55 2657.2C2360.75 2649.8 2357.35 2639.7 2359.35 2626.9L2399.25 2403.1C2401.45 2391.5 2407.15 2382.7 2416.35 2376.7C2425.75 2370.7 2435.15 2367.7 2444.55 2367.7C2455.75 2367.7 2465.75 2371.9 2474.55 2380.3C2483.55 2388.5 2486.85 2399.5 2484.45 2413.3L2482.35 2423.5C2493.75 2406.3 2505.25 2392.1 2516.85 2380.9C2528.65 2369.7 2539.45 2364.1 2549.25 2364.1C2558.65 2364.1 2565.35 2365.8 2569.35 2369.2C2573.35 2372.6 2576.65 2376.1 2579.25 2379.7C2582.05 2383.1 2586.05 2384.8 2591.25 2384.8C2597.05 2384.8 2602.85 2382.9 2608.65 2379.1C2614.65 2375.3 2619.15 2372.4 2622.15 2370.4C2627.95 2366.6 2635.35 2364.6 2644.35 2364.4C2653.55 2364.2 2661.75 2366.7 2668.95 2371.9C2676.35 2377.1 2680.05 2385.8 2680.05 2398C2680.05 2406.6 2677.95 2413.6 2673.75 2419C2669.75 2424.2 2664.85 2428.4 2659.05 2431.6C2653.45 2434.8 2648.35 2437.6 2643.75 2440C2635.95 2444.2 2626.55 2448.9 2615.55 2454.1C2604.75 2459.1 2595.85 2461.6 2588.85 2461.6C2580.85 2461.6 2573.55 2460.2 2566.95 2457.4C2560.55 2454.4 2554.65 2451.5 2549.25 2448.7C2544.05 2445.7 2539.05 2444.2 2534.25 2444.2C2531.05 2444.2 2526.15 2447.3 2519.55 2453.5C2512.95 2459.7 2504.85 2469.8 2495.25 2483.8C2485.65 2497.6 2474.65 2516 2462.25 2539L2445.45 2632.9C2443.25 2644.3 2437.35 2653 2427.75 2659C2418.35 2665 2408.85 2668 2399.25 2668Z" fill="#FFF9EC"/>
<path d="M2162.31 2673.4C2132.11 2673.4 2109.21 2663.6 2093.61 2644C2078.21 2624.4 2072.51 2598 2076.51 2564.8C2079.91 2533.4 2086.21 2505.2 2095.41 2480.2C2104.61 2455.2 2116.31 2434 2130.51 2416.6C2144.91 2399 2161.31 2385.6 2179.71 2376.4C2198.31 2367 2218.51 2362.3 2240.31 2362.3C2255.51 2362.3 2268.91 2363.1 2280.51 2364.7C2292.11 2366.3 2302.51 2369.1 2311.71 2373.1C2315.51 2374.5 2319.81 2377.2 2324.61 2381.2C2329.41 2385 2332.81 2390.3 2334.81 2397.1C2337.01 2403.7 2335.81 2412 2331.21 2422C2326.61 2431.8 2319.91 2438.5 2311.11 2442.1C2302.31 2445.7 2292.91 2445.5 2282.91 2441.5C2274.91 2438.3 2267.41 2436 2260.41 2434.6C2253.41 2433 2246.71 2432.2 2240.31 2432.2C2225.71 2432.2 2212.51 2437.6 2200.71 2448.4C2189.11 2459 2179.41 2474.4 2171.61 2494.6C2163.81 2514.6 2158.31 2538.7 2155.11 2566.9C2153.91 2576.1 2154.81 2583.7 2157.81 2589.7C2161.01 2595.7 2165.41 2598.7 2171.01 2598.7C2180.81 2598.7 2191.71 2592.6 2203.71 2580.4C2215.91 2568 2227.61 2550.9 2238.81 2529.1C2242.01 2522.7 2248.51 2518.6 2258.31 2516.8C2268.31 2514.8 2278.91 2516.7 2290.11 2522.5C2301.31 2527.9 2307.71 2535.4 2309.31 2545C2311.11 2554.4 2310.71 2561.4 2308.11 2566C2289.91 2599.2 2267.81 2625.4 2241.81 2644.6C2215.81 2663.8 2189.31 2673.4 2162.31 2673.4Z" fill="#FFF9EC"/>
<path d="M1905.8 2673.4C1894.2 2673.4 1881.2 2671.6 1866.8 2668C1852.6 2664.6 1840.1 2659.5 1829.3 2652.7C1812.7 2642.1 1802 2631 1797.2 2619.4C1792.4 2607.8 1793.2 2597 1799.6 2587C1805.4 2576.8 1814.2 2572.1 1826 2572.9C1838 2573.7 1848.7 2577.2 1858.1 2583.4C1861.7 2585.4 1868.2 2588.7 1877.6 2593.3C1887.2 2597.7 1896.8 2599.9 1906.4 2599.9C1915.2 2599.9 1921.5 2597.7 1925.3 2593.3C1929.3 2588.9 1931.3 2584.5 1931.3 2580.1C1931.3 2576.7 1930.8 2574 1929.8 2572C1928.8 2569.8 1926.6 2567.4 1923.2 2564.8C1917.6 2560.8 1910.6 2556.2 1902.2 2551C1893.8 2545.6 1884.9 2540.1 1875.5 2534.5C1857.3 2523.7 1843.5 2510.8 1834.1 2495.8C1824.7 2480.6 1820 2463.6 1820 2444.8C1820 2418.8 1829.7 2398.6 1849.1 2384.2C1868.5 2369.6 1895.1 2362.3 1928.9 2362.3C1940.5 2362.3 1952.8 2363.4 1965.8 2365.6C1978.8 2367.8 1990.8 2371.5 2001.8 2376.7C2017.8 2384.3 2028.9 2393.6 2035.1 2404.6C2041.5 2415.6 2041.3 2427.6 2034.5 2440.6C2029.3 2450 2021 2454.8 2009.6 2455C1998.4 2455.2 1987.3 2452.4 1976.3 2446.6C1969.5 2443 1961.2 2439.9 1951.4 2437.3C1941.8 2434.7 1931.9 2433.4 1921.7 2433.4C1914.5 2433.4 1908.8 2434.7 1904.6 2437.3C1900.6 2439.9 1898.6 2443.2 1898.6 2447.2C1898.6 2452.2 1901.4 2457.3 1907 2462.5C1912.8 2467.7 1922.1 2474.4 1934.9 2482.6C1943.5 2488.2 1952.5 2494.1 1961.9 2500.3C1971.3 2506.3 1978.4 2511.7 1983.2 2516.5C1991 2523.9 1997.5 2532.3 2002.7 2541.7C2007.9 2550.9 2010.5 2564.3 2010.5 2581.9C2010.5 2600.1 2006.2 2616.1 1997.6 2629.9C1989.2 2643.7 1977.1 2654.4 1961.3 2662C1945.7 2669.6 1927.2 2673.4 1905.8 2673.4Z" fill="#FFF9EC"/>
</svg>
